<?xml version="1.0" encoding="UTF-8"?>
<svg xmlns="http://www.w3.org/2000/svg" xmlns:xlink="http://www.w3.org/1999/xlink" width="300px" height="93px" viewBox="0 0 301 93" version="1.1">
<g id="surface1">
<path style=" stroke:none;fill-rule:nonzero;fill:rgb(100%,83.921569%,40%);fill-opacity:1;" d="M 75.5625 83.460938 L 75.5625 61.820312 L 53.980469 61.820312 L 53.980469 83.460938 "/>
<path style=" stroke:none;fill-rule:nonzero;fill:rgb(100%,83.921569%,40%);fill-opacity:1;" d="M 75.539062 40.214844 L 53.964844 61.832031 L 53.964844 41.082031 C 53.964844 34.636719 48.722656 29.382812 42.289062 29.382812 L 33.261719 29.382812 C 26.828125 29.382812 21.585938 34.636719 21.585938 41.082031 L 21.585938 50.132812 C 21.585938 56.578125 26.828125 61.832031 33.261719 61.832031 L 53.964844 61.832031 L 32.394531 83.449219 C 14.847656 82.984375 0.652344 68.859375 0.0234375 51.3125 C 0.0117188 50.921875 0 50.523438 0 50.121094 L 0 41.070312 C 0 22.695312 14.925781 7.742188 33.261719 7.742188 L 42.289062 7.742188 C 60.339844 7.742188 75.074219 22.230469 75.539062 40.214844 Z M 75.539062 40.214844 "/>
<path style=" stroke:none;fill-rule:nonzero;fill:rgb(100%,100%,100%);fill-opacity:1;" d="M 116.25 76.183594 C 112.285156 76.183594 108.960938 75.519531 106.289062 74.199219 C 103.621094 72.878906 101.636719 70.945312 100.347656 68.40625 C 99.054688 65.867188 98.402344 62.675781 98.402344 58.816406 L 98.402344 42.578125 L 94.777344 42.578125 C 93.171875 42.578125 91.917969 42.152344 91.027344 41.285156 C 90.136719 40.417969 89.683594 39.234375 89.683594 37.742188 C 89.683594 36.132812 90.136719 34.898438 91.027344 34.070312 C 91.917969 33.242188 93.171875 32.8125 94.777344 32.8125 L 98.402344 32.8125 L 98.402344 26.253906 C 98.402344 24.066406 98.980469 22.40625 100.132812 21.289062 C 101.285156 20.171875 102.890625 19.605469 104.960938 19.605469 C 107.03125 19.605469 108.699219 20.171875 109.789062 21.289062 C 110.882812 22.40625 111.433594 24.066406 111.433594 26.253906 L 111.433594 32.8125 L 119.621094 32.8125 C 121.226562 32.8125 122.46875 33.230469 123.335938 34.070312 C 124.199219 34.898438 124.625 36.132812 124.625 37.742188 C 124.625 39.234375 124.199219 40.417969 123.335938 41.285156 C 122.46875 42.152344 121.242188 42.578125 119.621094 42.578125 L 111.433594 42.578125 L 111.433594 58.300781 C 111.433594 60.714844 111.996094 62.535156 113.113281 63.742188 C 114.230469 64.949219 116.035156 65.550781 118.507812 65.550781 C 119.371094 65.550781 120.175781 65.464844 120.914062 65.289062 C 121.652344 65.113281 122.34375 65 122.984375 64.9375 C 123.785156 64.886719 124.449219 65.125 124.964844 65.664062 C 125.480469 66.21875 125.742188 67.414062 125.742188 69.246094 C 125.742188 70.628906 125.515625 71.835938 125.054688 72.878906 C 124.589844 73.921875 123.785156 74.664062 122.644531 75.128906 C 121.890625 75.417969 120.875 75.65625 119.585938 75.859375 C 118.292969 76.058594 117.1875 76.160156 116.261719 76.160156 Z M 116.25 76.183594 "/>
<path style=" stroke:none;fill-rule:nonzero;fill:rgb(100%,100%,100%);fill-opacity:1;" d="M 137.019531 76.019531 C 134.835938 76.019531 133.167969 75.441406 132.011719 74.285156 C 130.859375 73.128906 130.28125 71.496094 130.28125 69.359375 L 130.28125 38.695312 C 130.28125 36.558594 130.847656 34.9375 131.964844 33.820312 C 133.078125 32.699219 134.648438 32.136719 136.667969 32.136719 C 138.6875 32.136719 140.316406 32.699219 141.40625 33.820312 C 142.5 34.9375 143.050781 36.570312 143.050781 38.695312 L 143.050781 43.183594 L 142.183594 43.183594 C 142.875 39.726562 144.390625 37.050781 146.75 35.152344 C 149.109375 33.253906 152.15625 32.183594 155.894531 31.960938 C 157.335938 31.847656 158.4375 32.210938 159.214844 33.039062 C 159.992188 33.882812 160.40625 35.238281 160.46875 37.148438 C 160.582031 38.933594 160.21875 40.34375 159.390625 41.386719 C 158.550781 42.414062 157.160156 43.054688 155.214844 43.28125 L 153.234375 43.457031 C 149.960938 43.746094 147.527344 44.703125 145.949219 46.3125 C 144.367188 47.921875 143.578125 50.257812 143.578125 53.3125 L 143.578125 69.386719 C 143.578125 71.523438 143.011719 73.15625 141.894531 74.3125 C 140.78125 75.46875 139.148438 76.046875 137.03125 76.046875 Z M 137.019531 76.019531 "/>
<path style=" stroke:none;fill-rule:nonzero;fill:rgb(100%,100%,100%);fill-opacity:1;" d="M 181.429688 76.183594 C 177.867188 76.183594 174.90625 75.519531 172.546875 74.199219 C 170.191406 72.878906 168.460938 70.867188 167.332031 68.191406 C 166.214844 65.515625 165.648438 62.183594 165.648438 58.214844 L 165.648438 38.683594 C 165.648438 36.496094 166.214844 34.851562 167.332031 33.757812 C 168.445312 32.664062 170.050781 32.109375 172.109375 32.109375 C 174.167969 32.109375 175.785156 32.664062 176.9375 33.757812 C 178.089844 34.851562 178.667969 36.496094 178.667969 38.683594 L 178.667969 58.550781 C 178.667969 61.089844 179.183594 62.976562 180.222656 64.207031 C 181.265625 65.453125 182.894531 66.066406 185.140625 66.066406 C 187.609375 66.066406 189.640625 65.1875 191.222656 63.429688 C 192.804688 61.667969 193.59375 59.355469 193.59375 56.480469 L 193.59375 38.683594 C 193.59375 36.496094 194.15625 34.851562 195.273438 33.757812 C 196.390625 32.664062 197.996094 32.109375 200.066406 32.109375 C 202.132812 32.109375 203.816406 32.664062 204.929688 33.757812 C 206.046875 34.851562 206.613281 36.496094 206.613281 38.683594 L 206.613281 69.347656 C 206.613281 73.785156 204.515625 75.996094 200.316406 75.996094 C 198.246094 75.996094 196.664062 75.417969 195.574219 74.261719 C 194.484375 73.105469 193.933594 71.472656 193.933594 69.335938 L 193.933594 63.542969 L 195.222656 66.910156 C 193.957031 69.851562 192.152344 72.125 189.792969 73.734375 C 187.433594 75.34375 184.652344 76.148438 181.429688 76.148438 Z M 181.429688 76.183594 "/>
<path style=" stroke:none;fill-rule:nonzero;fill:rgb(100%,100%,100%);fill-opacity:1;" d="M 237.289062 76.183594 C 232.683594 76.183594 228.683594 75.28125 225.261719 73.457031 C 221.835938 71.648438 219.214844 69.070312 217.371094 65.726562 C 215.527344 62.386719 214.613281 58.4375 214.613281 53.890625 C 214.613281 50.496094 215.128906 47.441406 216.167969 44.726562 C 217.210938 42.027344 218.714844 39.714844 220.695312 37.816406 C 222.675781 35.917969 225.074219 34.460938 227.894531 33.453125 C 230.703125 32.449219 233.839844 31.945312 237.289062 31.945312 C 239.070312 31.945312 240.964844 32.160156 242.980469 32.601562 C 244.988281 33.027344 246.96875 33.769531 248.925781 34.800781 C 250.082031 35.316406 250.871094 36.054688 251.296875 37 C 251.722656 37.953125 251.886719 38.933594 251.773438 39.941406 C 251.660156 40.945312 251.296875 41.835938 250.695312 42.617188 C 250.09375 43.394531 249.328125 43.910156 248.414062 44.175781 C 247.496094 44.4375 246.457031 44.277344 245.316406 43.699219 C 244.222656 43.070312 243.082031 42.605469 241.902344 42.316406 C 240.726562 42.027344 239.621094 41.886719 238.582031 41.886719 C 236.847656 41.886719 235.332031 42.164062 234.015625 42.703125 C 232.699219 43.257812 231.582031 44.023438 230.691406 45.042969 C 229.800781 46.046875 229.109375 47.304688 228.621094 48.800781 C 228.132812 50.296875 227.894531 52.03125 227.894531 53.976562 C 227.894531 57.773438 228.824219 60.765625 230.691406 62.914062 C 232.558594 65.0625 235.195312 66.15625 238.582031 66.15625 C 239.621094 66.15625 240.710938 66.03125 241.851562 65.765625 C 243.007812 65.503906 244.148438 65.0625 245.300781 64.421875 C 246.457031 63.84375 247.484375 63.703125 248.398438 63.992188 C 249.316406 64.28125 250.054688 64.8125 250.59375 65.589844 C 251.132812 66.371094 251.460938 67.261719 251.546875 68.265625 C 251.636719 69.273438 251.460938 70.253906 251.035156 71.207031 C 250.609375 72.164062 249.84375 72.890625 248.75 73.40625 C 246.792969 74.386719 244.839844 75.089844 242.894531 75.519531 C 240.9375 75.945312 239.070312 76.171875 237.289062 76.171875 Z M 237.289062 76.183594 "/>
<path style=" stroke:none;fill-rule:nonzero;fill:rgb(100%,100%,100%);fill-opacity:1;" d="M 264.441406 76.019531 C 262.308594 76.019531 260.691406 75.441406 259.574219 74.285156 C 258.457031 73.128906 257.894531 71.496094 257.894531 69.359375 L 257.894531 20.207031 C 257.894531 18.023438 258.457031 16.363281 259.574219 15.246094 C 260.691406 14.125 262.320312 13.558594 264.441406 13.558594 C 266.5625 13.558594 268.101562 14.125 269.230469 15.246094 C 270.359375 16.363281 270.914062 18.023438 270.914062 20.207031 L 270.914062 50.359375 L 271.089844 50.359375 L 283.59375 36.445312 C 284.859375 35 286.023438 33.933594 287.078125 33.203125 C 288.144531 32.488281 289.5625 32.121094 291.34375 32.121094 C 293.125 32.121094 294.492188 32.585938 295.429688 33.503906 C 296.382812 34.421875 296.875 35.542969 296.898438 36.835938 C 296.925781 38.128906 296.371094 39.4375 295.21875 40.769531 L 282.023438 55.546875 L 282.023438 50.621094 L 296.6875 67.550781 C 297.777344 68.871094 298.253906 70.203125 298.101562 71.523438 C 297.964844 72.839844 297.375 73.921875 296.335938 74.765625 C 295.304688 75.59375 293.976562 76.019531 292.371094 76.019531 C 290.414062 76.019531 288.847656 75.644531 287.667969 74.902344 C 286.488281 74.160156 285.296875 73.003906 284.09375 71.445312 L 271.074219 56.929688 L 270.898438 56.929688 L 270.898438 69.371094 C 270.898438 73.808594 268.742188 76.019531 264.429688 76.019531 Z M 264.441406 76.019531 "/>
</g>
</svg>
