<?xml version="1.0" encoding="UTF-8"?>
<svg xmlns="http://www.w3.org/2000/svg" xmlns:xlink="http://www.w3.org/1999/xlink" width="133px" height="150px" viewBox="0 0 133 149" version="1.1">
<g id="surface1">
<path style=" stroke:none;fill-rule:nonzero;fill:rgb(100%,83.921569%,40%);fill-opacity:1;" d="M 133 37.808594 L 133 90.414062 C 133 111.292969 115.460938 128.222656 93.804688 128.222656 L 89.835938 128.222656 L 69.597656 147.738281 C 68.808594 148.503906 67.707031 148.980469 66.5 148.980469 C 65.378906 148.980469 64.359375 148.585938 63.570312 147.925781 L 63.214844 147.59375 L 43.140625 128.222656 L 39.171875 128.222656 C 17.539062 128.242188 0 111.292969 0 90.414062 L 0 37.808594 C 0 16.929688 17.539062 0 39.195312 0 L 93.804688 0 C 115.441406 0 133 16.929688 133 37.808594 Z M 133 37.808594 "/>
<path style=" stroke:none;fill-rule:nonzero;fill:rgb(26.27451%,26.27451%,26.27451%);fill-opacity:1;" d="M 50.851562 89.089844 C 50.851562 94.347656 46.589844 98.589844 41.3125 98.589844 C 36.035156 98.589844 31.773438 94.324219 31.773438 89.089844 C 31.773438 83.855469 36.054688 79.589844 41.3125 79.589844 C 46.570312 79.589844 50.851562 83.832031 50.851562 89.089844 Z M 50.851562 89.089844 "/>
<path style=" stroke:none;fill-rule:nonzero;fill:rgb(97.647059%,71.764706%,8.235294%);fill-opacity:1;" d="M 47.671875 89.089844 C 47.671875 92.585938 44.824219 95.421875 41.3125 95.421875 C 37.800781 95.421875 34.953125 92.585938 34.953125 89.089844 C 34.953125 85.59375 37.800781 82.757812 41.3125 82.757812 C 44.824219 82.757812 47.671875 85.59375 47.671875 89.089844 Z M 47.671875 89.089844 "/>
<path style=" stroke:none;fill-rule:nonzero;fill:rgb(80%,57.254902%,16.862745%);fill-opacity:1;" d="M 45.949219 89.089844 C 45.949219 91.636719 43.871094 93.683594 41.332031 93.683594 C 38.796875 93.683594 36.71875 91.613281 36.71875 89.089844 C 36.71875 86.566406 38.796875 84.496094 41.332031 84.496094 C 43.871094 84.496094 45.949219 86.566406 45.949219 89.089844 Z M 45.949219 89.089844 "/>
<path style=" stroke:none;fill-rule:nonzero;fill:rgb(97.647059%,71.764706%,8.235294%);fill-opacity:1;" d="M 44.078125 89.089844 C 44.078125 90.601562 42.851562 91.84375 41.3125 91.84375 C 39.773438 91.84375 38.550781 90.621094 38.550781 89.089844 C 38.550781 87.558594 39.773438 86.335938 41.3125 86.335938 C 42.851562 86.335938 44.078125 87.558594 44.078125 89.089844 Z M 44.078125 89.089844 "/>
<path style=" stroke:none;fill-rule:nonzero;fill:rgb(97.647059%,71.764706%,8.235294%);fill-opacity:1;" d="M 35.347656 88.386719 L 47.507812 88.386719 L 47.507812 89.773438 L 35.347656 89.773438 Z M 35.347656 88.386719 "/>
<path style=" stroke:none;fill-rule:nonzero;fill:rgb(97.647059%,71.764706%,8.235294%);fill-opacity:1;" d="M 37.539062 94.078125 L 43.894531 83.757812 L 45.082031 84.480469 L 38.726562 94.800781 Z M 37.539062 94.078125 "/>
<path style=" stroke:none;fill-rule:nonzero;fill:rgb(97.647059%,71.764706%,8.235294%);fill-opacity:1;" d="M 37.359375 84.398438 L 38.535156 83.65625 L 45.050781 93.875 L 43.878906 94.617188 Z M 37.359375 84.398438 "/>
<path style=" stroke:none;fill-rule:nonzero;fill:rgb(80%,57.254902%,16.862745%);fill-opacity:1;" d="M 43.496094 89.089844 C 43.496094 90.289062 42.519531 91.261719 41.3125 91.261719 C 40.109375 91.261719 39.132812 90.289062 39.132812 89.089844 C 39.132812 87.890625 40.109375 86.917969 41.3125 86.917969 C 42.519531 86.917969 43.496094 87.890625 43.496094 89.089844 Z M 43.496094 89.089844 "/>
<path style=" stroke:none;fill-rule:nonzero;fill:rgb(97.647059%,71.764706%,8.235294%);fill-opacity:1;" d="M 42.433594 87.785156 C 42.433594 87.992188 42.269531 88.160156 42.0625 88.160156 C 41.851562 88.160156 41.6875 87.992188 41.6875 87.785156 C 41.6875 87.578125 41.851562 87.414062 42.0625 87.414062 C 42.269531 87.414062 42.433594 87.578125 42.433594 87.785156 Z M 42.433594 87.785156 "/>
<path style=" stroke:none;fill-rule:nonzero;fill:rgb(26.27451%,26.27451%,26.27451%);fill-opacity:1;" d="M 104.902344 89.070312 C 104.902344 94.324219 100.621094 98.566406 95.363281 98.566406 C 90.109375 98.566406 85.828125 94.324219 85.828125 89.070312 C 85.828125 83.8125 90.109375 79.570312 95.363281 79.570312 C 100.621094 79.570312 104.902344 83.8125 104.902344 89.070312 Z M 104.902344 89.070312 "/>
<path style=" stroke:none;fill-rule:nonzero;fill:rgb(97.647059%,71.764706%,8.235294%);fill-opacity:1;" d="M 101.722656 89.070312 C 101.722656 92.566406 98.878906 95.402344 95.363281 95.402344 C 91.851562 95.402344 89.007812 92.566406 89.007812 89.070312 C 89.007812 85.570312 91.851562 82.738281 95.363281 82.738281 C 98.878906 82.738281 101.722656 85.570312 101.722656 89.070312 Z M 101.722656 89.070312 "/>
<path style=" stroke:none;fill-rule:nonzero;fill:rgb(80%,57.254902%,16.862745%);fill-opacity:1;" d="M 96.761719 84.703125 C 99.191406 85.464844 100.542969 88.042969 99.777344 90.464844 C 99.015625 92.882812 96.421875 94.230469 93.992188 93.46875 C 91.5625 92.707031 90.210938 90.128906 90.976562 87.707031 C 91.742188 85.285156 94.332031 83.941406 96.761719 84.703125 Z M 96.761719 84.703125 "/>
<path style=" stroke:none;fill-rule:nonzero;fill:rgb(97.647059%,71.764706%,8.235294%);fill-opacity:1;" d="M 98.128906 89.070312 C 98.128906 90.578125 96.902344 91.820312 95.363281 91.820312 C 93.828125 91.820312 92.601562 90.601562 92.601562 89.070312 C 92.601562 87.539062 93.828125 86.316406 95.363281 86.316406 C 96.902344 86.316406 98.128906 87.539062 98.128906 89.070312 Z M 98.128906 89.070312 "/>
<path style=" stroke:none;fill-rule:nonzero;fill:rgb(97.647059%,71.764706%,8.235294%);fill-opacity:1;" d="M 89.402344 88.34375 L 101.558594 88.34375 L 101.558594 89.730469 L 89.402344 89.730469 Z M 89.402344 88.34375 "/>
<path style=" stroke:none;fill-rule:nonzero;fill:rgb(97.647059%,71.764706%,8.235294%);fill-opacity:1;" d="M 91.585938 94.035156 L 97.945312 83.714844 L 99.132812 84.441406 L 92.773438 94.757812 Z M 91.585938 94.035156 "/>
<path style=" stroke:none;fill-rule:nonzero;fill:rgb(97.647059%,71.764706%,8.235294%);fill-opacity:1;" d="M 91.402344 84.355469 L 92.578125 83.609375 L 99.09375 93.832031 L 97.917969 94.574219 Z M 91.402344 84.355469 "/>
<path style=" stroke:none;fill-rule:nonzero;fill:rgb(80%,57.254902%,16.862745%);fill-opacity:1;" d="M 97.546875 89.070312 C 97.546875 90.269531 96.570312 91.242188 95.363281 91.242188 C 94.160156 91.242188 93.183594 90.269531 93.183594 89.070312 C 93.183594 87.867188 94.160156 86.894531 95.363281 86.894531 C 96.570312 86.894531 97.546875 87.867188 97.546875 89.070312 Z M 97.546875 89.070312 "/>
<path style=" stroke:none;fill-rule:nonzero;fill:rgb(97.647059%,71.764706%,8.235294%);fill-opacity:1;" d="M 96.464844 87.765625 C 96.464844 87.972656 96.300781 88.136719 96.09375 88.136719 C 95.882812 88.136719 95.71875 87.972656 95.71875 87.765625 C 95.71875 87.558594 95.882812 87.394531 96.09375 87.394531 C 96.300781 87.394531 96.464844 87.558594 96.464844 87.765625 Z M 96.464844 87.765625 "/>
<path style=" stroke:none;fill-rule:nonzero;fill:rgb(100%,27.843137%,27.843137%);fill-opacity:1;" d="M 106.441406 90.847656 C 106.484375 90.394531 106.546875 89.957031 106.546875 89.484375 C 106.546875 83.417969 101.597656 78.492188 95.511719 78.492188 C 89.421875 78.492188 84.476562 83.398438 84.476562 89.484375 C 84.476562 89.957031 84.496094 90.414062 84.578125 90.847656 L 53.78125 90.847656 L 53.636719 90.476562 C 53.65625 90.105469 53.136719 89.648438 53.136719 89.296875 C 53.136719 83.234375 47.445312 78.679688 41.375 78.679688 C 35.308594 78.679688 29.882812 84.886719 29.800781 90.871094 L 20.054688 91.160156 L 20.199219 90.664062 L 16.792969 90.558594 L 16.792969 89.855469 C 15.605469 89.253906 13.300781 87.289062 13.507812 81.164062 C 13.507812 81.144531 15.460938 81.164062 16.6875 81.183594 L 16.542969 67.691406 L 26.871094 65.476562 L 33.6875 39.816406 L 50.683594 41.597656 L 54.261719 40.5625 L 72.320312 40.332031 C 72.320312 40.332031 72.296875 40.167969 72.296875 40.0625 L 111.90625 39.527344 L 111.949219 90.871094 L 106.484375 90.871094 Z M 106.441406 90.847656 "/>
<path style=" stroke:none;fill-rule:nonzero;fill:rgb(88.627451%,32.941176%,32.941176%);fill-opacity:1;" d="M 71.382812 85.40625 C 71.382812 87.433594 69.660156 89.089844 67.539062 89.089844 L 58.394531 89.089844 C 56.277344 89.089844 54.550781 87.433594 54.550781 85.40625 L 54.550781 49.003906 C 54.550781 46.976562 56.277344 45.320312 58.394531 45.320312 L 67.539062 45.320312 C 69.660156 45.320312 71.382812 46.976562 71.382812 49.003906 Z M 71.382812 85.40625 "/>
<path style=" stroke:none;fill-rule:nonzero;fill:rgb(25.882353%,25.882353%,26.27451%);fill-opacity:1;" d="M 77.472656 47.226562 L 105.753906 47.226562 L 105.753906 65.933594 L 77.472656 65.933594 Z M 77.472656 47.226562 "/>
<path style=" stroke:none;fill-rule:nonzero;fill:rgb(80%,57.254902%,16.862745%);fill-opacity:1;" d="M 106.523438 65.621094 C 106.523438 66.035156 106.359375 66.367188 106.128906 66.367188 L 76.996094 66.367188 C 76.785156 66.367188 76.601562 66.035156 76.601562 65.621094 C 76.601562 65.207031 76.765625 64.878906 76.996094 64.878906 L 106.128906 64.878906 C 106.335938 64.878906 106.523438 65.207031 106.523438 65.621094 Z M 106.523438 65.621094 "/>
<path style=" stroke:none;fill-rule:nonzero;fill:rgb(80%,57.254902%,16.862745%);fill-opacity:1;" d="M 75.976562 50.289062 L 107.191406 50.289062 L 106.398438 47.078125 L 76.765625 47.078125 Z M 75.976562 50.289062 "/>
<path style=" stroke:none;fill-rule:nonzero;fill:rgb(97.647059%,71.764706%,8.235294%);fill-opacity:1;" d="M 75.976562 50.265625 C 75.957031 50.390625 75.933594 50.515625 75.933594 50.617188 C 75.933594 51.695312 76.808594 52.5625 77.886719 52.5625 C 78.96875 52.5625 79.839844 51.695312 79.839844 50.617188 C 79.839844 50.496094 79.839844 50.371094 79.800781 50.265625 L 75.957031 50.265625 Z M 75.976562 50.265625 "/>
<path style=" stroke:none;fill-rule:nonzero;fill:rgb(97.647059%,71.764706%,8.235294%);fill-opacity:1;" d="M 79.882812 50.265625 C 79.863281 50.390625 79.839844 50.515625 79.839844 50.617188 C 79.839844 51.695312 80.714844 52.5625 81.796875 52.5625 C 82.875 52.5625 83.75 51.695312 83.75 50.617188 C 83.75 50.496094 83.75 50.371094 83.707031 50.265625 L 79.863281 50.265625 Z M 79.882812 50.265625 "/>
<path style=" stroke:none;fill-rule:nonzero;fill:rgb(97.647059%,71.764706%,8.235294%);fill-opacity:1;" d="M 83.789062 50.265625 C 83.789062 50.371094 83.769531 50.496094 83.769531 50.597656 C 83.769531 51.675781 84.640625 52.542969 85.722656 52.542969 C 86.804688 52.542969 87.675781 51.675781 87.675781 50.597656 C 87.675781 50.496094 87.675781 50.371094 87.65625 50.265625 Z M 83.789062 50.265625 "/>
<path style=" stroke:none;fill-rule:nonzero;fill:rgb(97.647059%,71.764706%,8.235294%);fill-opacity:1;" d="M 87.695312 50.265625 C 87.695312 50.265625 87.675781 50.472656 87.675781 50.578125 C 87.675781 51.652344 88.550781 52.523438 89.628906 52.523438 C 90.710938 52.523438 91.582031 51.652344 91.582031 50.578125 C 91.582031 50.472656 91.582031 50.371094 91.5625 50.265625 Z M 87.695312 50.265625 "/>
<path style=" stroke:none;fill-rule:nonzero;fill:rgb(97.647059%,71.764706%,8.235294%);fill-opacity:1;" d="M 91.605469 50.265625 C 91.605469 50.265625 91.605469 50.453125 91.605469 50.535156 C 91.605469 51.613281 92.476562 52.480469 93.558594 52.480469 C 94.636719 52.480469 95.511719 51.613281 95.511719 50.535156 C 95.511719 50.433594 95.511719 50.347656 95.511719 50.265625 Z M 91.605469 50.265625 "/>
<path style=" stroke:none;fill-rule:nonzero;fill:rgb(97.647059%,71.764706%,8.235294%);fill-opacity:1;" d="M 95.488281 50.265625 C 95.488281 50.265625 95.488281 50.433594 95.488281 50.515625 C 95.488281 51.589844 96.363281 52.460938 97.441406 52.460938 C 98.523438 52.460938 99.398438 51.589844 99.398438 50.515625 C 99.398438 50.433594 99.398438 50.347656 99.398438 50.265625 Z M 95.488281 50.265625 "/>
<path style=" stroke:none;fill-rule:nonzero;fill:rgb(97.647059%,71.764706%,8.235294%);fill-opacity:1;" d="M 99.398438 50.265625 C 99.398438 50.265625 99.398438 50.410156 99.398438 50.496094 C 99.398438 51.570312 100.269531 52.441406 101.351562 52.441406 C 102.429688 52.441406 103.304688 51.570312 103.304688 50.496094 C 103.304688 50.410156 103.304688 50.347656 103.304688 50.265625 Z M 99.398438 50.265625 "/>
<path style=" stroke:none;fill-rule:nonzero;fill:rgb(97.647059%,71.764706%,8.235294%);fill-opacity:1;" d="M 103.304688 50.265625 C 103.304688 50.265625 103.304688 50.390625 103.304688 50.453125 C 103.304688 51.527344 104.175781 52.398438 105.257812 52.398438 C 106.335938 52.398438 107.210938 51.527344 107.210938 50.453125 C 107.210938 50.390625 107.210938 50.328125 107.210938 50.265625 Z M 103.304688 50.265625 "/>
<path style=" stroke:none;fill-rule:nonzero;fill:rgb(25.882353%,25.882353%,26.27451%);fill-opacity:1;" d="M 46.964844 47.226562 L 38.984375 47.226562 L 38.984375 63.160156 L 46.964844 63.160156 C 49.066406 63.160156 50.769531 61.109375 50.769531 58.585938 L 50.769531 51.820312 C 50.769531 49.292969 49.066406 47.246094 46.964844 47.246094 Z M 46.964844 47.226562 "/>
<path style=" stroke:none;fill-rule:nonzero;fill:rgb(25.882353%,25.882353%,26.27451%);fill-opacity:1;" d="M 37.46875 47.226562 C 37.46875 47.226562 37.34375 47.226562 37.261719 47.226562 C 34.207031 47.101562 34.019531 48.507812 34.019531 48.507812 C 34.019531 48.507812 31.339844 61.585938 31.253906 61.585938 C 31.253906 63.34375 33.042969 63.117188 33.042969 63.117188 L 37.074219 63.117188 C 37.199219 63.117188 37.324219 63.140625 37.46875 63.140625 L 37.78125 63.140625 L 37.78125 47.203125 L 37.46875 47.203125 Z M 37.46875 47.226562 "/>
<path style=" stroke:none;fill-rule:nonzero;fill:rgb(25.882353%,25.882353%,26.27451%);fill-opacity:1;" d="M 59.601562 65.910156 C 59.601562 67.214844 58.789062 68.292969 57.773438 68.292969 C 56.753906 68.292969 55.941406 67.234375 55.941406 65.910156 C 55.941406 64.585938 56.753906 63.53125 57.773438 63.53125 C 58.789062 63.53125 59.601562 64.585938 59.601562 65.910156 Z M 59.601562 65.910156 "/>
<path style=" stroke:none;fill-rule:nonzero;fill:rgb(25.882353%,25.882353%,26.27451%);fill-opacity:1;" d="M 70.46875 85.550781 C 70.46875 85.550781 70.386719 85.738281 70.28125 85.738281 L 55.820312 85.738281 C 55.820312 85.738281 55.632812 85.65625 55.632812 85.550781 C 55.632812 85.550781 55.714844 85.363281 55.820312 85.363281 L 70.28125 85.363281 C 70.28125 85.363281 70.46875 85.449219 70.46875 85.550781 Z M 70.46875 85.550781 "/>
<path style=" stroke:none;fill-rule:nonzero;fill:rgb(25.882353%,25.882353%,26.27451%);fill-opacity:1;" d="M 70.46875 84.515625 C 70.46875 84.515625 70.386719 84.703125 70.28125 84.703125 L 55.820312 84.703125 C 55.820312 84.703125 55.632812 84.621094 55.632812 84.515625 C 55.632812 84.515625 55.714844 84.328125 55.820312 84.328125 L 70.28125 84.328125 C 70.28125 84.328125 70.46875 84.414062 70.46875 84.515625 Z M 70.46875 84.515625 "/>
<path style=" stroke:none;fill-rule:nonzero;fill:rgb(25.882353%,25.882353%,26.27451%);fill-opacity:1;" d="M 70.46875 83.480469 C 70.46875 83.480469 70.386719 83.667969 70.28125 83.667969 L 55.820312 83.667969 C 55.820312 83.667969 55.632812 83.585938 55.632812 83.480469 C 55.632812 83.480469 55.714844 83.296875 55.820312 83.296875 L 70.28125 83.296875 C 70.28125 83.296875 70.46875 83.378906 70.46875 83.480469 Z M 70.46875 83.480469 "/>
<path style=" stroke:none;fill-rule:nonzero;fill:rgb(25.882353%,25.882353%,26.27451%);fill-opacity:1;" d="M 70.46875 82.425781 C 70.46875 82.425781 70.386719 82.613281 70.28125 82.613281 L 55.820312 82.613281 C 55.820312 82.613281 55.632812 82.53125 55.632812 82.425781 C 55.632812 82.425781 55.714844 82.238281 55.820312 82.238281 L 70.28125 82.238281 C 70.28125 82.238281 70.46875 82.324219 70.46875 82.425781 Z M 70.46875 82.425781 "/>
<path style=" stroke:none;fill-rule:nonzero;fill:rgb(25.882353%,25.882353%,26.27451%);fill-opacity:1;" d="M 70.46875 81.390625 C 70.46875 81.390625 70.386719 81.578125 70.28125 81.578125 L 55.820312 81.578125 C 55.820312 81.578125 55.632812 81.496094 55.632812 81.390625 C 55.632812 81.390625 55.714844 81.203125 55.820312 81.203125 L 70.28125 81.203125 C 70.28125 81.203125 70.46875 81.289062 70.46875 81.390625 Z M 70.46875 81.390625 "/>
<path style=" stroke:none;fill-rule:nonzero;fill:rgb(25.882353%,25.882353%,26.27451%);fill-opacity:1;" d="M 70.46875 80.355469 C 70.46875 80.355469 70.386719 80.542969 70.28125 80.542969 L 55.820312 80.542969 C 55.820312 80.542969 55.632812 80.460938 55.632812 80.355469 C 55.632812 80.355469 55.714844 80.171875 55.820312 80.171875 L 70.28125 80.171875 C 70.28125 80.171875 70.46875 80.253906 70.46875 80.355469 Z M 70.46875 80.355469 "/>
<path style=" stroke:none;fill-rule:nonzero;fill:rgb(25.882353%,25.882353%,26.27451%);fill-opacity:1;" d="M 70.46875 79.320312 C 70.46875 79.320312 70.386719 79.507812 70.28125 79.507812 L 55.820312 79.507812 C 55.820312 79.507812 55.632812 79.425781 55.632812 79.320312 C 55.632812 79.320312 55.714844 79.136719 55.820312 79.136719 L 70.28125 79.136719 C 70.28125 79.136719 70.46875 79.21875 70.46875 79.320312 Z M 70.46875 79.320312 "/>
<path style=" stroke:none;fill-rule:nonzero;fill:rgb(25.882353%,25.882353%,26.27451%);fill-opacity:1;" d="M 70.46875 78.285156 C 70.46875 78.285156 70.386719 78.472656 70.28125 78.472656 L 55.820312 78.472656 C 55.820312 78.472656 55.632812 78.390625 55.632812 78.285156 C 55.632812 78.285156 55.714844 78.101562 55.820312 78.101562 L 70.28125 78.101562 C 70.28125 78.101562 70.46875 78.183594 70.46875 78.285156 Z M 70.46875 78.285156 "/>
<path style=" stroke:none;fill-rule:nonzero;fill:rgb(25.882353%,25.882353%,26.27451%);fill-opacity:1;" d="M 70.46875 77.230469 C 70.46875 77.230469 70.386719 77.417969 70.28125 77.417969 L 55.820312 77.417969 C 55.820312 77.417969 55.632812 77.335938 55.632812 77.230469 C 55.632812 77.230469 55.714844 77.046875 55.820312 77.046875 L 70.28125 77.046875 C 70.28125 77.046875 70.46875 77.128906 70.46875 77.230469 Z M 70.46875 77.230469 "/>
<path style=" stroke:none;fill-rule:nonzero;fill:rgb(25.882353%,25.882353%,26.27451%);fill-opacity:1;" d="M 70.46875 76.195312 C 70.46875 76.195312 70.386719 76.382812 70.28125 76.382812 L 55.820312 76.382812 C 55.820312 76.382812 55.632812 76.300781 55.632812 76.195312 C 55.632812 76.195312 55.714844 76.011719 55.820312 76.011719 L 70.28125 76.011719 C 70.28125 76.011719 70.46875 76.09375 70.46875 76.195312 Z M 70.46875 76.195312 "/>
<path style=" stroke:none;fill-rule:nonzero;fill:rgb(25.882353%,25.882353%,26.27451%);fill-opacity:1;" d="M 70.367188 62.394531 C 70.367188 62.394531 70.28125 62.578125 70.179688 62.578125 L 55.714844 62.578125 C 55.714844 62.578125 55.527344 62.496094 55.527344 62.394531 C 55.527344 62.394531 55.609375 62.207031 55.714844 62.207031 L 70.179688 62.207031 C 70.179688 62.207031 70.367188 62.289062 70.367188 62.394531 Z M 70.367188 62.394531 "/>
<path style=" stroke:none;fill-rule:nonzero;fill:rgb(25.882353%,25.882353%,26.27451%);fill-opacity:1;" d="M 70.367188 61.359375 C 70.367188 61.359375 70.28125 61.546875 70.179688 61.546875 L 55.714844 61.546875 C 55.714844 61.546875 55.527344 61.460938 55.527344 61.359375 C 55.527344 61.359375 55.609375 61.171875 55.714844 61.171875 L 70.179688 61.171875 C 70.179688 61.171875 70.367188 61.253906 70.367188 61.359375 Z M 70.367188 61.359375 "/>
<path style=" stroke:none;fill-rule:nonzero;fill:rgb(25.882353%,25.882353%,26.27451%);fill-opacity:1;" d="M 70.367188 60.324219 C 70.367188 60.324219 70.28125 60.511719 70.179688 60.511719 L 55.714844 60.511719 C 55.714844 60.511719 55.527344 60.429688 55.527344 60.324219 C 55.527344 60.324219 55.609375 60.136719 55.714844 60.136719 L 70.179688 60.136719 C 70.179688 60.136719 70.367188 60.222656 70.367188 60.324219 Z M 70.367188 60.324219 "/>
<path style=" stroke:none;fill-rule:nonzero;fill:rgb(25.882353%,25.882353%,26.27451%);fill-opacity:1;" d="M 70.367188 59.269531 C 70.367188 59.269531 70.28125 59.457031 70.179688 59.457031 L 55.714844 59.457031 C 55.714844 59.457031 55.527344 59.371094 55.527344 59.269531 C 55.527344 59.269531 55.609375 59.082031 55.714844 59.082031 L 70.179688 59.082031 C 70.179688 59.082031 70.367188 59.164062 70.367188 59.269531 Z M 70.367188 59.269531 "/>
<path style=" stroke:none;fill-rule:nonzero;fill:rgb(25.882353%,25.882353%,26.27451%);fill-opacity:1;" d="M 69.761719 47.058594 C 69.761719 47.265625 69.597656 47.433594 69.386719 47.433594 C 69.179688 47.433594 69.015625 47.265625 69.015625 47.058594 C 69.015625 46.851562 69.179688 46.6875 69.386719 46.6875 C 69.597656 46.6875 69.761719 46.851562 69.761719 47.058594 Z M 69.761719 47.058594 "/>
<path style=" stroke:none;fill-rule:nonzero;fill:rgb(25.882353%,25.882353%,26.27451%);fill-opacity:1;" d="M 57.273438 47.058594 C 57.273438 47.265625 57.105469 47.433594 56.898438 47.433594 C 56.691406 47.433594 56.523438 47.265625 56.523438 47.058594 C 56.523438 46.851562 56.691406 46.6875 56.898438 46.6875 C 57.105469 46.6875 57.273438 46.851562 57.273438 47.058594 Z M 57.273438 47.058594 "/>
<path style=" stroke:none;fill-rule:nonzero;fill:rgb(100%,100%,100%);fill-opacity:1;" d="M 48.710938 47.660156 C 48.710938 47.660156 48.566406 47.578125 48.484375 47.535156 L 40.648438 59.496094 Z M 48.710938 47.660156 "/>
<path style=" stroke:none;fill-rule:nonzero;fill:rgb(100%,100%,100%);fill-opacity:1;" d="M 49.3125 48.136719 C 49.3125 48.136719 49.210938 48.03125 49.148438 47.992188 L 42.496094 58.007812 Z M 49.3125 48.136719 "/>
<path style=" stroke:none;fill-rule:nonzero;fill:rgb(100%,100%,100%);fill-opacity:1;" d="M 47.839844 47.265625 C 47.839844 47.265625 47.691406 47.226562 47.609375 47.203125 L 41.292969 56.703125 L 47.816406 47.246094 Z M 47.839844 47.265625 "/>
<path style=" stroke:none;fill-rule:nonzero;fill:rgb(100%,100%,100%);fill-opacity:1;" d="M 50.726562 51.136719 C 50.726562 51.136719 50.726562 51.09375 50.726562 51.074219 L 42.664062 63.078125 L 42.707031 63.078125 L 49.523438 53.207031 L 50.746094 51.15625 Z M 50.726562 51.136719 "/>
<path style=" stroke:none;fill-rule:nonzero;fill:rgb(25.882353%,25.882353%,26.27451%);fill-opacity:1;" d="M 27.390625 87.890625 C 27.390625 88.550781 26.847656 89.070312 26.207031 89.070312 C 25.5625 89.070312 25.019531 88.53125 25.019531 87.890625 C 25.019531 87.246094 25.5625 86.710938 26.207031 86.710938 C 26.847656 86.710938 27.390625 87.246094 27.390625 87.890625 Z M 27.390625 87.890625 "/>
<path style=" stroke:none;fill-rule:nonzero;fill:rgb(25.882353%,25.882353%,26.27451%);fill-opacity:1;" d="M 81.734375 87.890625 C 81.734375 88.550781 81.191406 89.070312 80.546875 89.070312 C 79.902344 89.070312 79.363281 88.53125 79.363281 87.890625 C 79.363281 87.246094 79.902344 86.710938 80.546875 86.710938 C 81.191406 86.710938 81.734375 87.246094 81.734375 87.890625 Z M 81.734375 87.890625 "/>
<path style=" stroke:none;fill-rule:nonzero;fill:rgb(25.882353%,25.882353%,26.27451%);fill-opacity:1;" d="M 31.835938 53.640625 C 31.503906 53.640625 31.234375 53.371094 31.234375 53.039062 L 31.234375 51.550781 L 27.285156 51.550781 C 26.953125 51.550781 26.683594 51.28125 26.683594 50.949219 C 26.683594 50.617188 26.953125 50.347656 27.285156 50.347656 L 31.835938 50.347656 C 32.167969 50.347656 32.441406 50.617188 32.441406 50.949219 L 32.441406 53.019531 C 32.441406 53.351562 32.167969 53.621094 31.835938 53.621094 Z M 31.835938 53.640625 "/>
<path style=" stroke:none;fill-rule:nonzero;fill:rgb(97.647059%,71.764706%,8.235294%);fill-opacity:1;" d="M 26.414062 47.722656 L 26.414062 56.992188 C 27.058594 56.949219 27.578125 56.226562 27.578125 55.359375 L 27.578125 49.355469 C 27.578125 48.488281 27.058594 47.761719 26.414062 47.722656 Z M 26.414062 47.722656 "/>
<path style=" stroke:none;fill-rule:nonzero;fill:rgb(100%,100%,100%);fill-opacity:1;" d="M 27.367188 49.128906 C 27.367188 49.335938 27.203125 49.5 26.996094 49.5 C 26.785156 49.5 26.621094 49.335938 26.621094 49.128906 C 26.621094 48.921875 26.785156 48.757812 26.996094 48.757812 C 27.203125 48.757812 27.367188 48.921875 27.367188 49.128906 Z M 27.367188 49.128906 "/>
<path style=" stroke:none;fill-rule:nonzero;fill:rgb(25.882353%,25.882353%,26.27451%);fill-opacity:1;" d="M 16.855469 80.523438 L 13.695312 80.523438 C 13.425781 80.523438 13.195312 80.75 13.195312 81.019531 C 13.195312 81.289062 13.425781 81.515625 13.695312 81.515625 L 16.855469 81.515625 C 17.125 81.515625 17.351562 81.289062 17.351562 81.019531 C 17.351562 80.75 17.125 80.523438 16.855469 80.523438 Z M 16.855469 80.523438 "/>
<path style=" stroke:none;fill-rule:nonzero;fill:rgb(25.882353%,25.882353%,26.27451%);fill-opacity:1;" d="M 16.417969 71.851562 C 15.566406 71.851562 14.878906 73.300781 14.878906 75.058594 C 14.878906 76.816406 15.566406 78.265625 16.417969 78.265625 C 16.542969 78.265625 16.644531 78.226562 16.769531 78.183594 L 16.769531 71.914062 C 16.667969 71.851562 16.542969 71.832031 16.417969 71.832031 Z M 16.417969 71.851562 "/>
<path style=" stroke:none;fill-rule:nonzero;fill:rgb(25.882353%,25.882353%,26.27451%);fill-opacity:1;" d="M 113.859375 38.304688 C 113.859375 40.269531 112.199219 41.863281 110.160156 41.863281 L 34.746094 41.863281 C 32.730469 41.863281 31.066406 40.25 31.066406 38.304688 C 31.066406 36.359375 32.730469 34.746094 34.746094 34.746094 L 110.140625 34.746094 C 112.175781 34.746094 113.839844 36.359375 113.839844 38.304688 Z M 113.859375 38.304688 "/>
<path style=" stroke:none;fill-rule:nonzero;fill:rgb(25.882353%,25.882353%,26.27451%);fill-opacity:1;" d="M 112.757812 89.980469 C 112.757812 90.539062 112.28125 91.015625 111.71875 91.015625 L 105.546875 91.015625 L 105.589844 89.917969 C 105.589844 89.917969 105.777344 84.742188 102.597656 81.578125 C 100.769531 79.734375 98.109375 78.867188 94.742188 78.96875 L 94.679688 78.96875 C 94.324219 78.949219 85.578125 78.90625 85.015625 90.847656 L 85.015625 91.28125 L 84.703125 91.574219 C 84.484375 91.792969 83.5 91.910156 81.753906 91.925781 C 80.964844 91.945312 79.964844 91.945312 78.84375 91.945312 L 76.847656 91.945312 C 64.527344 91.925781 52.535156 91.902344 52.535156 91.902344 L 51.414062 91.902344 L 51.476562 90.785156 C 51.476562 90.785156 51.765625 85.34375 48.523438 81.886719 C 46.714844 79.941406 44.160156 78.90625 40.875 78.847656 C 40.273438 78.867188 31.339844 79.363281 30.839844 90.953125 L 30.796875 91.945312 L 17.039062 92.007812 C 16.480469 92.007812 16 91.53125 16 90.972656 C 16 90.414062 16.457031 89.9375 17.039062 89.9375 L 28.824219 89.898438 C 29.363281 83.417969 32.441406 80.210938 34.996094 78.640625 C 37.90625 76.839844 40.730469 76.777344 40.855469 76.777344 L 40.898438 76.777344 C 44.785156 76.878906 47.878906 78.121094 50.0625 80.5 C 52.949219 83.648438 53.46875 87.847656 53.554688 89.835938 C 59.269531 89.835938 68.140625 89.855469 76.808594 89.875 L 78.863281 89.875 C 80.714844 89.875 82.105469 89.855469 82.980469 89.855469 C 84.019531 77.230469 93.847656 76.902344 94.660156 76.902344 C 98.648438 76.753906 101.828125 77.851562 104.074219 80.109375 C 106.941406 83.003906 107.542969 87 107.625 88.925781 L 111.679688 88.925781 C 112.238281 88.925781 112.71875 89.378906 112.71875 89.957031 Z M 112.757812 89.980469 "/>
<path style=" stroke:none;fill-rule:nonzero;fill:rgb(100%,100%,100%);fill-opacity:1;" d="M 110.058594 36.546875 C 110.058594 36.734375 109.789062 36.898438 109.453125 36.898438 L 36.035156 36.898438 C 35.703125 36.898438 35.410156 36.734375 35.410156 36.546875 C 35.410156 36.339844 35.703125 36.175781 36.035156 36.175781 L 109.453125 36.175781 C 109.789062 36.175781 110.058594 36.339844 110.058594 36.546875 Z M 110.058594 36.546875 "/>
<path style=" stroke:none;fill-rule:nonzero;fill:rgb(100%,100%,100%);fill-opacity:1;" d="M 28.78125 90.558594 C 28.78125 90.722656 28.65625 90.847656 28.492188 90.847656 L 17.144531 90.847656 C 16.976562 90.847656 16.855469 90.722656 16.855469 90.558594 C 16.855469 90.394531 16.976562 90.269531 17.144531 90.269531 L 28.492188 90.269531 C 28.65625 90.269531 28.78125 90.394531 28.78125 90.558594 Z M 28.78125 90.558594 "/>
<path style=" stroke:none;fill-rule:nonzero;fill:rgb(100%,100%,100%);fill-opacity:1;" d="M 112.15625 89.773438 C 112.15625 89.9375 112.03125 90.0625 111.867188 90.0625 L 107.894531 90.0625 C 107.730469 90.0625 107.605469 89.9375 107.605469 89.773438 C 107.605469 89.605469 107.730469 89.484375 107.894531 89.484375 L 111.867188 89.484375 C 112.03125 89.484375 112.15625 89.605469 112.15625 89.773438 Z M 112.15625 89.773438 "/>
<path style=" stroke:none;fill-rule:nonzero;fill:rgb(100%,100%,100%);fill-opacity:1;" d="M 82.9375 90.664062 C 82.9375 90.828125 82.792969 90.972656 82.625 90.972656 L 53.71875 90.972656 C 53.554688 90.972656 53.40625 90.828125 53.40625 90.664062 C 53.40625 90.496094 53.554688 90.371094 53.71875 90.371094 L 82.625 90.371094 C 82.792969 90.371094 82.9375 90.496094 82.9375 90.664062 Z M 82.9375 90.664062 "/>
<path style=" stroke:none;fill-rule:nonzero;fill:rgb(11.764706%,69.411765%,66.666667%);fill-opacity:1;" d="M 58.042969 65.789062 C 58.042969 67.296875 57.917969 68.539062 57.75 68.539062 C 57.585938 68.539062 57.460938 67.320312 57.460938 65.789062 C 57.460938 64.257812 57.585938 63.035156 57.75 63.035156 C 57.917969 63.035156 58.042969 64.257812 58.042969 65.789062 Z M 58.042969 65.789062 "/>
</g>
</svg>
